<?xml version="1.0" standalone="no"?><!DOCTYPE svg PUBLIC "-//W3C//DTD SVG 1.1//EN" "http://www.w3.org/Graphics/SVG/1.1/DTD/svg11.dtd"><svg t="1697514911519" class="icon" viewBox="0 0 1024 1024" version="1.1" xmlns="http://www.w3.org/2000/svg" p-id="7105" xmlns:xlink="http://www.w3.org/1999/xlink" width="200" height="200"><path d="M704 384v213.333333h-42.666667v-42.666666h-128v213.333333h-42.666666v-213.333333h-128v42.666666h-42.666667V341.333333h170.666667V256h42.666666v85.333333h170.666667v42.666667z m-42.666667 0h-128v128h128V384z m-298.666666 0v128h128V384h-128zM170.666667 0h682.666666a170.666667 170.666667 0 0 1 170.666667 170.666667v682.666666a170.666667 170.666667 0 0 1-170.666667 170.666667H170.666667a170.666667 170.666667 0 0 1-170.666667-170.666667V170.666667a170.666667 170.666667 0 0 1 170.666667-170.666667z m0 42.666667a128 128 0 0 0-128 128v682.666666a128 128 0 0 0 128 128h682.666666a128 128 0 0 0 128-128V170.666667a128 128 0 0 0-128-128H170.666667z" fill="#1296db" p-id="7106"></path></svg>