<?xml version="1.0" standalone="no"?><!DOCTYPE svg PUBLIC "-//W3C//DTD SVG 1.1//EN" "http://www.w3.org/Graphics/SVG/1.1/DTD/svg11.dtd"><svg t="1694779862108" class="icon" viewBox="0 0 1024 1024" version="1.1" xmlns="http://www.w3.org/2000/svg" p-id="5709" xmlns:xlink="http://www.w3.org/1999/xlink" width="200" height="200"><path d="M624 128h-118.4l92.8 160h118.4l-92.8-160z m73.6 0l92.8 160H896V160c0-19.2-12.8-32-32-32h-166.4z m-265.6 0H313.6l92.8 160h118.4l-92.8-160z m-192 0H160c-19.2 0-32 12.8-32 32v128h201.6L240 128zM896 352H128v512c0 19.2 12.8 32 32 32h704c19.2 0 32-12.8 32-32V352zM128 64h768c35.2 0 64 28.8 64 64v768c0 35.2-28.8 64-64 64H128c-35.2 0-64-28.8-64-64V128c0-35.2 28.8-64 64-64z m288 473.6v153.6c0 9.6 6.4 16 16 16 3.2 0 6.4 0 9.6-3.2l118.4-76.8c6.4-3.2 9.6-16 3.2-22.4 0-3.2-3.2-3.2-3.2-3.2l-118.4-76.8c-6.4-3.2-16-3.2-22.4 3.2-3.2 3.2-3.2 6.4-3.2 9.6z m243.2 102.4l-256 166.4c-16 9.6-35.2 6.4-44.8-9.6-3.2-6.4-6.4-9.6-6.4-16V448c0-19.2 12.8-32 32-32 6.4 0 12.8 3.2 16 6.4l256 166.4c16 9.6 19.2 28.8 9.6 44.8l-6.4 6.4z" fill="#1afa29" fill-opacity="0" p-id="5710"></path><path d="M624 128h-118.4l92.8 160h118.4l-92.8-160z m73.6 0l92.8 160H896V160c0-19.2-12.8-32-32-32h-166.4z m-265.6 0H313.6l92.8 160h118.4l-92.8-160z m-192 0H160c-19.2 0-32 12.8-32 32v128h201.6L240 128zM896 352H128v512c0 19.2 12.8 32 32 32h704c19.2 0 32-12.8 32-32V352zM128 64h768c35.2 0 64 28.8 64 64v768c0 35.2-28.8 64-64 64H128c-35.2 0-64-28.8-64-64V128c0-35.2 28.8-64 64-64z m288 473.6v153.6c0 9.6 6.4 16 16 16 3.2 0 6.4 0 9.6-3.2l118.4-76.8c6.4-3.2 9.6-16 3.2-22.4 0-3.2-3.2-3.2-3.2-3.2l-118.4-76.8c-6.4-3.2-16-3.2-22.4 3.2-3.2 3.2-3.2 6.4-3.2 9.6z m243.2 102.4l-256 166.4c-16 9.6-35.2 6.4-44.8-9.6-3.2-6.4-6.4-9.6-6.4-16V448c0-19.2 12.8-32 32-32 6.4 0 12.8 3.2 16 6.4l256 166.4c16 9.6 19.2 28.8 9.6 44.8l-6.4 6.4z" fill="#1afa29" p-id="5711"></path></svg>