<?xml version="1.0" standalone="no"?><!DOCTYPE svg PUBLIC "-//W3C//DTD SVG 1.1//EN" "http://www.w3.org/Graphics/SVG/1.1/DTD/svg11.dtd"><svg t="1690471410022" class="icon" viewBox="0 0 1024 1024" version="1.1" xmlns="http://www.w3.org/2000/svg" p-id="8614" xmlns:xlink="http://www.w3.org/1999/xlink" width="200" height="200"><path d="M793.6 179.2v51.2c30.72 0 51.2 20.48 51.2 51.2v460.8c0 30.72-20.48 51.2-51.2 51.2H573.44l133.12-66.56c25.6-15.36 40.96-40.96 40.96-66.56V209.92c0-56.32-61.44-92.16-112.64-66.56l-102.4 51.2c-10.24 5.12-20.48 10.24-25.6 15.36-15.36-20.48-40.96-30.72-71.68-30.72H230.4c-20.48 0-35.84 5.12-51.2 15.36-10.24 5.12-15.36 10.24-20.48 15.36l-15.36 15.36s0 5.12-5.12 5.12c0 10.24-5.12 15.36-5.12 20.48V256c0 10.24-5.12 15.36-5.12 25.6v460.8c0 56.32 46.08 102.4 102.4 102.4h184.32c5.12 15.36 15.36 25.6 35.84 25.6h128c15.36 0 30.72-10.24 35.84-25.6h184.32c56.32 0 102.4-46.08 102.4-102.4V281.6c-5.12-56.32-51.2-102.4-107.52-102.4z m-256 512V261.12c0-10.24 5.12-20.48 15.36-20.48l102.4-51.2c15.36-10.24 35.84 5.12 35.84 20.48v450.56c0 10.24-5.12 20.48-15.36 20.48L537.6 752.64V691.2z m-358.4 51.2V281.6c0-30.72 20.48-51.2 51.2-51.2h204.8c30.72 0 51.2 20.48 51.2 51.2v512h-256c-30.72 0-51.2-20.48-51.2-51.2z" p-id="8615" fill="#12d5e9"></path></svg>