<?xml version="1.0" standalone="no"?><!DOCTYPE svg PUBLIC "-//W3C//DTD SVG 1.1//EN" "http://www.w3.org/Graphics/SVG/1.1/DTD/svg11.dtd"><svg t="1690471712739" class="icon" viewBox="0 0 1024 1024" version="1.1" xmlns="http://www.w3.org/2000/svg" p-id="11020" width="200" height="200" xmlns:xlink="http://www.w3.org/1999/xlink"><path d="M511.744 892.992a28.992 28.992 0 0 1-4.608-0.32l4.864 0.32a32.128 32.128 0 0 1-11.392-2.048A804.736 804.736 0 0 0 320 844.8a501.952 501.952 0 0 0-177.92 8.512A64 64 0 0 1 64 790.912V245.696a64 64 0 0 1 39.04-58.88C175.488 156.096 247.808 140.8 320 140.8c64.128 0 128.192 15.68 192 47.04l-14.976 7.552C565.888 158.976 634.88 140.8 704 140.8c72.192 0 144.512 15.36 216.96 46.016a64 64 0 0 1 38.592 51.264l0.448 7.68v545.152a64 64 0 0 1-78.08 62.4A501.952 501.952 0 0 0 704 844.8c-61.056 8.128-121.28 23.488-180.608 46.08a32 32 0 0 1-11.136 2.112zM320 204.8c-60.48 0-120.96 11.52-181.632 34.368a16 16 0 0 0-9.92 11.072L128 254.144v510.464a16 16 0 0 0 17.152 14.784c58.88-4.288 117.12-3.84 174.848 1.408 50.56 4.608 100.48 14.208 149.76 28.864a8 8 0 0 0 9.856-5.12l0.384-2.56V253.44a16 16 0 0 0-9.408-14.592C420.48 216.128 370.304 204.8 320 204.8z m384 0c-50.304 0-100.48 11.328-150.592 33.984a16 16 0 0 0-9.408 14.592v548.608a8 8 0 0 0 10.24 7.68c49.28-14.656 99.2-24.32 149.76-28.864 57.728-5.248 115.968-5.76 174.848-1.408a16 16 0 0 0 17.152-16V254.208a16 16 0 0 0-10.368-14.976A510.72 510.72 0 0 0 704 204.8z" fill="#12d5e9" p-id="11021"></path></svg>